<?xml version="1.0" encoding="UTF-8"?>
<svg width="427px" height="427px" viewBox="0 0 427 427" version="1.1" xmlns="http://www.w3.org/2000/svg" xmlns:xlink="http://www.w3.org/1999/xlink">
    <!-- Generator: Sketch 43.2 (39069) - http://www.bohemiancoding.com/sketch -->
    <title>Artboard</title>
    <desc>Created with Sketch.</desc>
    <defs></defs>
    <g id="Page-1" stroke="none" stroke-width="1" fill="none" fill-rule="evenodd">
        <g id="Artboard">
            <g id="Group">
                <circle id="Oval" fill="#000000" cx="213.5" cy="213.5" r="213.5"></circle>
                <path d="M263.646,80.531 C261.917,74.081 257.781,68.689 251.998,65.351 C240.062,58.459 224.742,62.562 217.848,74.502 L214,81.166 L210.152,74.501 C203.259,62.564 187.94,58.459 176.002,65.35 L176.001,65.35 C164.063,72.243 159.959,87.562 166.851,99.501 L185.132,131.165 L117.678,248 L68.5,248 C54.715,248 43.5,259.215 43.5,273 C43.5,286.785 54.715,298 68.5,298 L258.36,298 L229.492,248 L175.413,248 L261.148,99.502 C264.487,93.719 265.375,86.981 263.646,80.531 Z" id="Shape" fill="#FFFFFF" fill-rule="nonzero"></path>
                <path d="M359.5,248 L310.322,248 L254.415,151.166 L225.548,201.166 L312.352,351.514 C315.691,357.298 321.081,361.435 327.533,363.164 C329.687,363.741 331.872,364.027 334.044,364.027 C338.376,364.027 342.652,362.891 346.505,360.666 C358.443,353.773 362.547,338.453 355.654,326.516 L339.189,298 L359.5,298 C373.285,298 384.5,286.785 384.5,273 C384.5,259.215 373.285,248 359.5,248 Z" id="Shape" fill="#FFFFFF" fill-rule="nonzero"></path>
                <path d="M77.264,318 L72.347,326.516 C65.455,338.454 69.56,353.774 81.498,360.666 C85.425,362.933 89.717,364.011 93.956,364.01 C102.602,364.01 111.023,359.526 115.649,351.515 L134.999,318 L77.264,318 Z" id="Shape" fill="#FFFFFF" fill-rule="nonzero"></path>
            </g>
        </g>
    </g>
</svg>