<?xml version="1.0" encoding="UTF-8"?>
<svg width="400px" height="400px" viewBox="0 0 400 400" version="1.1" xmlns="http://www.w3.org/2000/svg" xmlns:xlink="http://www.w3.org/1999/xlink">
    <!-- Generator: Sketch 43.2 (39069) - http://www.bohemiancoding.com/sketch -->
    <title>Untitled 3</title>
    <desc>Created with Sketch.</desc>
    <defs></defs>
    <g id="Page-1" stroke="none" stroke-width="1" fill="none" fill-rule="evenodd">
        <g id="Twitter_Social_Icon_Circle_White" fill-rule="nonzero" fill="#000000">
            <path d="M400,200 C400,310.5 310.5,400 200,400 C89.5,400 0,310.5 0,200 C0,89.5 89.5,0 200,0 C310.5,0 400,89.5 400,200 Z M163.4,305.5 C252.1,305.5 300.6,232 300.6,168.3 C300.6,166.2 300.6,164.1 300.5,162.1 C309.9,155.3 318.1,146.8 324.6,137.1 C316,140.9 306.7,143.5 296.9,144.7 C306.9,138.7 314.5,129.3 318.1,118 C308.8,123.5 298.5,127.5 287.5,129.7 C278.7,120.3 266.2,114.5 252.3,114.5 C225.7,114.5 204.1,136.1 204.1,162.7 C204.1,166.5 204.5,170.2 205.4,173.7 C165.3,171.7 129.8,152.5 106,123.3 C101.9,130.4 99.5,138.7 99.5,147.5 C99.5,164.2 108,179 121,187.6 C113.1,187.4 105.7,185.2 99.2,181.6 L99.2,182.2 C99.2,205.6 115.8,225 137.9,229.5 C133.9,230.6 129.6,231.2 125.2,231.2 C122.1,231.2 119.1,230.9 116.1,230.3 C122.2,249.5 140,263.4 161.1,263.8 C144.6,276.7 123.8,284.4 101.2,284.4 C97.3,284.4 93.5,284.2 89.7,283.7 C110.8,297.5 136.2,305.5 163.4,305.5 L163.4,305.5 Z" id="Shape"></path>
        </g>
    </g>
</svg>